
<svg width="30px" height="30px" viewBox="0" version="1.1" xmlns="http://www.w3.org/2000/svg" xmlns:xlink="http://www.w3.org/1999/xlink">
    <g id="location-pin" stroke="none" stroke-width="1" fill="none" fill-rule="evenodd">
        <g id="location-pin-base" transform="translate(-0.005269, -0.038077)" fill="#02BBF5">
            <path d="M14.6548387,0.0265650206 C22.7464525,0.0265650206 29.3060015,6.58611404 29.3060015,14.6777278 C29.3060015,22.7693416 22.7464525,29.3288906 14.6548387,29.3288906 C6.56322496,29.3288906 0.00367594326,22.7693416 0.00367594326,14.6777278 C0.00367594326,6.58611404 6.56322496,0.0265650206 14.6548387,0.0265650206 Z M14.6511628,2.09302326 C7.71549384,2.09302326 2.09302326,7.71549384 2.09302326,14.6511628 C2.09302326,21.5868317 7.71549384,27.2093023 14.6511628,27.2093023 C21.5868317,27.2093023 27.2093023,21.5868317 27.2093023,14.6511628 C27.2093023,7.71549384 21.5868317,2.09302326 14.6511628,2.09302326 Z" id="outer"></path>
            <path d="M14.6548387,4.21261153 C20.4345629,4.21261153 25.119955,8.89800369 25.119955,14.6777278 C25.119955,20.4574519 20.4345629,25.1428441 14.6548387,25.1428441 C8.87511461,25.1428441 4.18972245,20.4574519 4.18972245,14.6777278 C4.18972245,8.89800369 8.87511461,4.21261153 14.6548387,4.21261153 Z M14.6548387,5.60796037 C9.64574449,5.60796037 5.58507129,9.66863357 5.58507129,14.6777278 C5.58507129,19.6868221 9.64574449,23.7474953 14.6548387,23.7474953 C19.663933,23.7474953 23.7246062,19.6868221 23.7246062,14.6777278 C23.7246062,9.66863357 19.663933,5.60796037 14.6548387,5.60796037 Z" id="central"></path>
            <path d="M14.6548387,8.39865804 C18.1226732,8.39865804 20.9339085,11.2098933 20.9339085,14.6777278 C20.9339085,18.1455623 18.1226732,20.9567976 14.6548387,20.9567976 C11.1870043,20.9567976 8.37576897,18.1455623 8.37576897,14.6777278 C8.37576897,11.2098933 11.1870043,8.39865804 14.6548387,8.39865804 Z M14.6548387,9.79400688 C11.9576341,9.79400688 9.7711178,11.9805232 9.7711178,14.6777278 C9.7711178,17.3749324 11.9576341,19.5614487 14.6548387,19.5614487 C17.3520433,19.5614487 19.5385597,17.3749324 19.5385597,14.6777278 C19.5385597,11.9805232 17.3520433,9.79400688 14.6548387,9.79400688 Z" id="inner"></path>
            <rect id="center" x="12.5618155" y="12.5847046" width="4.18604651" height="4.18604651" rx="2.09302326"></rect>
        </g>
    </g>
</svg>
